# xmcd CD database file
#
# Track frame offsets:
#	150
#	2682
#	21556
#	35868
#	54723
#	59052
#	79229
#	105116
#	122186
#	137023
#	148397
#	153489
#
# Disc length: 2696 seconds
#
# Revision: 0
# Processed by: cddbd v1.5PL3 Copyright (c) Steve Scherf et al.
# Submitted via: CDex 1.51
#
DISCID=b00a860c
DTITLE=Siegfried  - Louise (take 2) part II
DYEAR=1900
DGENRE=Jazz
TTITLE0=Intro
TTITLE1=Subway vibes
TTITLE2=Abstract jazz mix
TTITLE3=Subway vibes (remix)
TTITLE4=Interlude
TTITLE5=Stop frontin'
TTITLE6=Dans les couloirs du paname
TTITLE7=Have a seat underground
TTITLE8=Le reve de Louise
TTITLE9=Int. nuit. hotel
TTITLE10=Te deum
TTITLE11=La belle et la bête
EXTD=
EXTT0=
EXTT1=
EXTT2=
EXTT3=
EXTT4=
EXTT5=
EXTT6=
EXTT7=
EXTT8=
EXTT9=
EXTT10=
EXTT11=
PLAYORDER=
